<?xml version="1.0" encoding="UTF-8" standalone="no"?>
<svg
   xmlns:dc="http://purl.org/dc/elements/1.1/"
   xmlns:cc="http://creativecommons.org/ns#"
   xmlns:rdf="http://www.w3.org/1999/02/22-rdf-syntax-ns#"
   xmlns:svg="http://www.w3.org/2000/svg"
   xmlns="http://www.w3.org/2000/svg"
   xmlns:sodipodi="http://sodipodi.sourceforge.net/DTD/sodipodi-0.dtd"
   xmlns:inkscape="http://www.inkscape.org/namespaces/inkscape"
   width="157.09695mm"
   height="30.846273mm"
   viewBox="0 0 204.22604 40.100157"
   version="1.1"
   id="svg8"
   inkscape:version="1.0.2 (e86c870879, 2021-01-15, custom)"
   sodipodi:docname="eb-logo-readme.svg">
  <defs
     id="defs2" />
  <sodipodi:namedview
     id="base"
     pagecolor="#ffffff"
     bordercolor="#666666"
     borderopacity="1.0"
     inkscape:pageopacity="0.0"
     inkscape:pageshadow="2"
     inkscape:zoom="0.98994949"
     inkscape:cx="288.97636"
     inkscape:cy="16.567189"
     inkscape:document-units="mm"
     inkscape:current-layer="layer1"
     inkscape:document-rotation="0"
     showgrid="false"
     inkscape:snap-text-baseline="true"
     inkscape:window-width="1761"
     inkscape:window-height="1024"
     inkscape:window-x="1353"
     inkscape:window-y="572"
     inkscape:window-maximized="0"
     inkscape:snap-page="true"
     scale-x="1.3"
     fit-margin-top="0"
     fit-margin-left="0"
     fit-margin-right="0"
     fit-margin-bottom="0" />
  <metadata
     id="metadata5">
    <rdf:RDF>
      <cc:Work
         rdf:about="">
        <dc:format>image/svg+xml</dc:format>
        <dc:type
           rdf:resource="http://purl.org/dc/dcmitype/StillImage" />
        <dc:title></dc:title>
      </cc:Work>
    </rdf:RDF>
  </metadata>
  <g
     inkscape:label="Layer 1"
     inkscape:groupmode="layer"
     id="layer1">
    <path
       id="rect891"
       style="fill:#291300;fill-opacity:1;stroke:none;stroke-width:0.432674;stroke-opacity:1"
       d="m 0,33.587183 h 204.22605 v 6.489312 H 0 Z" />
    <path
       id="rect889"
       style="fill:#fff7f0;fill-opacity:1;stroke:none;stroke-width:0.414004;stroke-opacity:1"
       d="M 0,0 H 204.22605 V 33.587183 H 0 Z" />
    <g
       id="layer1-3"
       inkscape:label="Layer 1"
       transform="matrix(1.0549608,0,0,1.0549608,1.415459,1.5330685)">
      <g
         style="font-style:normal;font-variant:normal;font-weight:normal;font-stretch:normal;font-size:31.5795px;line-height:1.25;font-family:'Eras Demi ITC';-inkscape-font-specification:'Eras Demi ITC, Normal';font-variant-ligatures:normal;font-variant-caps:normal;font-variant-numeric:normal;font-variant-east-asian:normal;fill:#000000;fill-opacity:1;stroke:none;stroke-width:0.78949"
         id="text12"
         aria-label="asyButton">
        <g
           id="path1127"
           style="opacity:1">
          <path
             style="color:#000000;font-style:normal;font-variant:normal;font-weight:normal;font-stretch:normal;font-size:31.5795px;line-height:1.25;font-family:'Eras Demi ITC';-inkscape-font-specification:'Eras Demi ITC, Normal';font-variant-ligatures:normal;font-variant-position:normal;font-variant-caps:normal;font-variant-numeric:normal;font-variant-alternates:normal;font-variant-east-asian:normal;font-feature-settings:normal;font-variation-settings:normal;text-indent:0;text-align:start;text-decoration:none;text-decoration-line:none;text-decoration-style:solid;text-decoration-color:#000000;letter-spacing:normal;word-spacing:normal;text-transform:none;writing-mode:lr-tb;direction:ltr;text-orientation:mixed;dominant-baseline:auto;baseline-shift:baseline;text-anchor:start;white-space:normal;shape-padding:0;shape-margin:0;inline-size:0;clip-rule:nonzero;display:inline;overflow:visible;visibility:visible;isolation:auto;mix-blend-mode:normal;color-interpolation:sRGB;color-interpolation-filters:linearRGB;solid-color:#000000;solid-opacity:1;vector-effect:none;fill:#593900;fill-opacity:1;fill-rule:nonzero;stroke:none;stroke-width:0.789;stroke-linecap:butt;stroke-linejoin:miter;stroke-miterlimit:4;stroke-dasharray:none;stroke-dashoffset:0;stroke-opacity:1;color-rendering:auto;image-rendering:auto;shape-rendering:auto;text-rendering:auto;enable-background:accumulate;stop-color:#000000;stop-opacity:1"
             d="m 20.110547,9.5175393 c 0.143917,-0.7401447 0.231295,-1.259274 0.262134,-1.557388 0.04112,-0.2981133 0.107939,-0.7504237 0.200456,-1.356931 1.398051,-0.3289533 2.631625,-0.5602487 3.700723,-0.693886 1.069097,-0.1336373 2.102216,-0.200456 3.099355,-0.200456 1.130777,0 2.169035,0.1336373 3.114775,0.400912 0.94574,0.2569947 1.685885,0.673326 2.220434,1.248994 0.534549,0.575668 0.801823,1.4031907 0.801823,2.482568 0,0.5859487 -0.08224,2.0816577 -0.246715,4.4871267 -0.164477,2.39519 -0.262135,4.872618 -0.292974,7.432285 -0.781263,-0.02056 -1.500848,-0.03084 -2.158755,-0.03084 -0.627067,0 -1.362071,0.01028 -2.205014,0.03084 0.133637,-1.243854 0.241575,-2.683024 0.323814,-4.31751 l 0.200455,-3.8395 c -0.390631,0.256995 -0.688745,0.436891 -0.894341,0.539689 -0.205595,0.102798 -0.43689,0.200456 -0.693885,0.292974 -0.256995,0.08224 -0.709305,0.215875 -1.356932,0.400912 -0.647627,0.174756 -1.166756,0.328953 -1.557387,0.46259 -0.390632,0.133637 -0.745285,0.287834 -1.063958,0.46259 -0.308394,0.164477 -0.570529,0.354653 -0.786404,0.570528 -0.215875,0.205596 -0.375212,0.426612 -0.47801,0.663047 -0.09252,0.226155 -0.138777,0.472869 -0.138777,0.740144 0,0.431751 0.123357,0.806964 0.370072,1.125637 0.256995,0.308393 0.575668,0.524269 0.95602,0.647626 0.380352,0.123357 0.827523,0.185036 1.341512,0.185036 0.328953,0 0.673326,-0.0257 1.033119,-0.0771 0.370072,-0.0514 0.863502,-0.179897 1.480289,-0.385492 -0.215875,0.585947 -0.46773,1.459729 -0.755564,2.621345 -0.729865,0.123357 -1.310673,0.200456 -1.742424,0.231295 -0.431751,0.03084 -0.832662,0.04626 -1.202735,0.04626 -1.295253,0 -2.35921,-0.174756 -3.191873,-0.524269 -0.832663,-0.349513 -1.44945,-0.904621 -1.850361,-1.665325 -0.390632,-0.760704 -0.585948,-1.526548 -0.585948,-2.297532 0,-0.442031 0.0771,-0.878922 0.231295,-1.310673 0.154197,-0.431751 0.380352,-0.827522 0.678466,-1.187315 0.298113,-0.359793 0.683605,-0.704165 1.156476,-1.033118 0.47287,-0.339233 1.156476,-0.663047 2.050817,-0.97144 0.894341,-0.318673 2.076517,-0.637347 3.546526,-0.95602 0.390631,-0.08224 0.796683,-0.179896 1.218154,-0.292974 0.421471,-0.123357 0.755564,-0.241575 1.002279,-0.354652 0.256995,-0.113078 0.47801,-0.256995 0.663046,-0.431751 0.185037,-0.185037 0.318674,-0.375213 0.400912,-0.570528 0.09252,-0.195317 0.138777,-0.395773 0.138777,-0.6013687 0,-0.4009113 -0.133637,-0.7401443 -0.400911,-1.017699 -0.256995,-0.277554 -0.596228,-0.46773 -1.017699,-0.570528 -0.411191,-0.1130773 -0.868642,-0.169616 -1.372352,-0.169616 -1.870921,0 -3.937157,0.4471707 -6.19871,1.341512 z"
             id="path969" />
          <path
             style="color:#000000;font-style:normal;font-variant:normal;font-weight:normal;font-stretch:normal;font-size:31.5795px;line-height:1.25;font-family:'Eras Demi ITC';-inkscape-font-specification:'Eras Demi ITC, Normal';font-variant-ligatures:normal;font-variant-position:normal;font-variant-caps:normal;font-variant-numeric:normal;font-variant-alternates:normal;font-variant-east-asian:normal;font-feature-settings:normal;font-variation-settings:normal;text-indent:0;text-align:start;text-decoration:none;text-decoration-line:none;text-decoration-style:solid;text-decoration-color:#000000;letter-spacing:normal;word-spacing:normal;text-transform:none;writing-mode:lr-tb;direction:ltr;text-orientation:mixed;dominant-baseline:auto;baseline-shift:baseline;text-anchor:start;white-space:normal;shape-padding:0;shape-margin:0;inline-size:0;clip-rule:nonzero;display:inline;overflow:visible;visibility:visible;isolation:auto;mix-blend-mode:normal;color-interpolation:sRGB;color-interpolation-filters:linearRGB;solid-color:#000000;solid-opacity:1;vector-effect:none;fill:#593900;fill-opacity:1;fill-rule:nonzero;stroke:none;stroke-linecap:butt;stroke-linejoin:miter;stroke-miterlimit:4;stroke-dasharray:none;stroke-dashoffset:0;stroke-opacity:1;color-rendering:auto;image-rendering:auto;shape-rendering:auto;text-rendering:auto;enable-background:accumulate;stop-color:#000000;stop-opacity:1"
             d="m 27.373047,5.3144531 c -1.014763,0 -2.064362,0.067615 -3.148438,0.203125 -1.087628,0.1359537 -2.333907,0.3698115 -3.742187,0.7011719 l -0.259766,0.060547 -0.03906,0.2636719 c -0.09266,0.6074193 -0.15953,1.0613688 -0.201174,1.3632811 l -0.002,0.00586 v 0.00781 c -0.02782,0.268876 -0.114782,0.7858983 -0.257813,1.5214843 l -0.136718,0.7070317 0.669921,-0.2636723 c 2.226958,-0.8806605 4.244674,-1.3144531 6.052735,-1.3144531 0.474189,0 0.896097,0.054093 1.267578,0.15625 l 0.0059,0.00195 h 0.0059 c 0.359997,0.087804 0.621819,0.2385961 0.822265,0.4550782 l 0.002,0.00391 0.0039,0.00195 c 0.201444,0.209193 0.289062,0.4308959 0.289062,0.7441407 0,0.1464215 -0.03002,0.2866745 -0.09961,0.4335945 l -0.0039,0.0078 -0.0039,0.0078 c -0.05771,0.137059 -0.159311,0.28309 -0.3125,0.4375 -0.149057,0.140096 -0.327962,0.259147 -0.546875,0.355469 l -0.002,0.002 -0.0039,0.002 c -0.218759,0.100264 -0.537066,0.213926 -0.947266,0.333984 -0.412204,0.110447 -0.809006,0.205062 -1.189453,0.285156 h -0.002 c -1.48043,0.320932 -2.676152,0.643047 -3.595703,0.970703 -0.913808,0.315424 -1.626817,0.649231 -2.148438,1.023438 -0.494111,0.344256 -0.905744,0.709652 -1.230468,1.101562 -0.326257,0.393758 -0.576488,0.831743 -0.746094,1.306641 -0.168539,0.47191 -0.253906,0.955457 -0.253906,1.443359 0,0.837611 0.213534,1.667681 0.628906,2.476563 l 0.002,0.002 v 0.002 c 0.441814,0.838315 1.140868,1.465404 2.046875,1.845703 0.899974,0.377767 2.014966,0.554688 3.345703,0.554688 0.381031,0 0.790728,-0.01546 1.230469,-0.04687 0.453279,-0.03238 1.042155,-0.111741 1.779297,-0.236328 l 0.255859,-0.04297 0.0625,-0.251953 c 0.286021,-1.154299 0.535885,-2.018161 0.742188,-2.578125 l 0.283203,-0.771485 -0.779297,0.259766 c -0.603689,0.201228 -1.079542,0.323492 -1.408203,0.36914 h -0.002 c -0.34313,0.04902 -0.67011,0.07422 -0.978516,0.07422 -0.482429,0 -0.888002,-0.05875 -1.21875,-0.166015 -0.310122,-0.100581 -0.556749,-0.269223 -0.767578,-0.519532 -0.19131,-0.24917 -0.285156,-0.524665 -0.285156,-0.878906 0,-0.219502 0.03695,-0.411623 0.107421,-0.585937 0.07929,-0.18093 0.204085,-0.357312 0.386719,-0.53125 l 0.002,-0.0039 0.0039,-0.0039 c 0.18488,-0.18488 0.414474,-0.351261 0.693359,-0.5 l 0.002,-0.002 h 0.002 c 0.296259,-0.162464 0.630065,-0.308322 1.001953,-0.435547 0.377287,-0.129072 0.890735,-0.281714 1.533203,-0.455078 l 0.002,-0.002 h 0.0039 c 0.649217,-0.185491 1.100377,-0.318918 1.367187,-0.404297 l 0.0078,-0.002 0.0059,-0.0039 c 0.269263,-0.09694 0.51622,-0.199516 0.738281,-0.310547 0.07107,-0.03553 0.198541,-0.123551 0.283204,-0.171875 l -0.160157,3.099609 c -0.08195,1.628791 -0.18967,3.06077 -0.322265,4.294922 l -0.04883,0.447266 0.451172,-0.01172 c 0.840558,-0.0205 1.572557,-0.0293 2.195312,-0.0293 0.653797,0 1.370085,0.0088 2.148438,0.0293 l 0.398437,0.01172 0.0059,-0.400391 c 0.03076,-2.552701 0.127082,-5.022867 0.291016,-7.410156 0.164625,-2.407645 0.248047,-3.890811 0.248047,-4.5136724 0,-1.1445012 -0.288044,-2.086193 -0.90625,-2.7519531 C 32.405414,6.4516248 31.593059,6.0022125 30.595703,5.7304688 29.610366,5.4520036 28.534905,5.3144531 27.373047,5.3144531 Z m 0,0.7890625 c 1.099695,0 2.101669,0.1306345 3.007812,0.3867188 h 0.002 0.002 c 0.891959,0.2423803 1.559626,0.6246101 2.035156,1.1367187 0.450892,0.4855758 0.695312,1.2005902 0.695312,2.2148438 0,0.5490361 -0.08177,2.0556901 -0.246093,4.4589841 -0.156286,2.275915 -0.24134,4.637945 -0.277344,7.060547 -0.625576,-0.01391 -1.235968,-0.02539 -1.779297,-0.02539 -0.507219,0 -1.134108,0.01208 -1.779297,0.02539 0.116177,-1.161249 0.216885,-2.425086 0.291016,-3.898437 l 0.242187,-4.617188 -0.652344,0.427735 c -0.384259,0.252802 -0.676147,0.428894 -0.853515,0.517578 -0.189129,0.09456 -0.405664,0.185335 -0.650391,0.273437 -0.248575,0.07935 -0.691685,0.211575 -1.332031,0.394531 -0.649398,0.175339 -1.175658,0.329111 -1.578125,0.466797 -0.409376,0.14005 -0.783912,0.303187 -1.125,0.490235 -0.336226,0.179756 -0.629107,0.392779 -0.875,0.638672 -0.244351,0.234312 -0.437379,0.495423 -0.5625,0.783203 v 0.0039 l -0.002,0.0059 c -0.113139,0.276562 -0.167969,0.575878 -0.167969,0.888672 0,0.506894 0.151663,0.980322 0.451172,1.367188 l 0.0059,0.0059 0.0039,0.0059 c 0.301709,0.362051 0.6894,0.624456 1.136718,0.769532 0.429957,0.139445 0.917342,0.205078 1.462891,0.205078 0.348878,0 0.712154,-0.02844 1.087891,-0.08203 0.22752,-0.0316 0.566214,-0.143977 0.857422,-0.222656 -0.154664,0.48439 -0.312328,0.996841 -0.494141,1.712891 -0.582978,0.09338 -1.110967,0.168222 -1.462891,0.193359 -0.42376,0.03027 -0.814714,0.04492 -1.173828,0.04492 -1.259768,0 -2.275664,-0.172882 -3.041016,-0.49414 -0.758375,-0.318331 -1.290395,-0.800672 -1.65039,-1.482422 -4.48e-4,-8.48e-4 -0.0015,-0.0011 -0.002,-0.002 -0.364439,-0.711087 -0.541016,-1.410299 -0.541016,-2.113281 0,-0.396158 0.06913,-0.788095 0.208985,-1.179687 0.138786,-0.388603 0.339403,-0.742532 0.609374,-1.06836 0.270418,-0.326366 0.628701,-0.648295 1.078126,-0.960937 h 0.002 l 0.0039,-0.002 c 0.423163,-0.303574 1.076764,-0.619076 1.949219,-0.919922 h 0.002 0.002 c 0.868679,-0.309529 2.035614,-0.62711 3.49414,-0.94336 0.398312,-0.08385 0.81242,-0.182095 1.240235,-0.296874 l 0.0039,-0.002 h 0.0039 c 0.43036,-0.125959 0.776816,-0.247891 1.050782,-0.373046 0.29362,-0.129194 0.554952,-0.297668 0.77539,-0.50586 l 0.0039,-0.0039 0.0039,-0.0039 c 0.212361,-0.212362 0.376341,-0.443072 0.482422,-0.69336 0.111461,-0.239971 0.171875,-0.497792 0.171875,-0.7578122 0,-0.4870466 -0.176722,-0.9415849 -0.507813,-1.2871094 C 28.673372,8.3093347 28.258617,8.0805851 27.777344,7.9628906 h -0.002 C 27.327419,7.8408964 26.837576,7.78125 26.308594,7.78125 c -1.746511,0 -3.661208,0.4281268 -5.703125,1.1699219 0.05868,-0.3346101 0.13773,-0.7429747 0.158203,-0.9375 L 20.765625,8 c 0.03233,-0.2338541 0.09188,-0.6359397 0.15625,-1.0625 1.268087,-0.2906881 2.423889,-0.5146559 3.400391,-0.6367188 1.054118,-0.1317649 2.071265,-0.1972656 3.050781,-0.1972656 z"
             id="path971" />
        </g>
        <g
           id="path1129"
           style="opacity:1">
          <path
             style="color:#000000;font-style:normal;font-variant:normal;font-weight:normal;font-stretch:normal;font-size:31.5795px;line-height:1.25;font-family:'Eras Demi ITC';-inkscape-font-specification:'Eras Demi ITC, Normal';font-variant-ligatures:normal;font-variant-position:normal;font-variant-caps:normal;font-variant-numeric:normal;font-variant-alternates:normal;font-variant-east-asian:normal;font-feature-settings:normal;font-variation-settings:normal;text-indent:0;text-align:start;text-decoration:none;text-decoration-line:none;text-decoration-style:solid;text-decoration-color:#000000;letter-spacing:normal;word-spacing:normal;text-transform:none;writing-mode:lr-tb;direction:ltr;text-orientation:mixed;dominant-baseline:auto;baseline-shift:baseline;text-anchor:start;white-space:normal;shape-padding:0;shape-margin:0;inline-size:0;clip-rule:nonzero;display:inline;overflow:visible;visibility:visible;isolation:auto;mix-blend-mode:normal;color-interpolation:sRGB;color-interpolation-filters:linearRGB;solid-color:#000000;solid-opacity:1;vector-effect:none;fill:#593900;fill-opacity:1;fill-rule:nonzero;stroke:none;stroke-width:0.78949;stroke-linecap:butt;stroke-linejoin:miter;stroke-miterlimit:4;stroke-dasharray:none;stroke-dashoffset:0;stroke-opacity:1;color-rendering:auto;image-rendering:auto;shape-rendering:auto;text-rendering:auto;enable-background:accumulate;stop-color:#000000;stop-opacity:1"
             d="m 36.393726,21.46779 -0.339233,-3.392329 c 1.007419,0.411191 1.860642,0.699025 2.559667,0.863502 0.699025,0.154197 1.341512,0.231295 1.927459,0.231295 0.585948,0 1.079378,-0.06682 1.480289,-0.200456 0.400912,-0.143917 0.699026,-0.349512 0.894342,-0.616787 0.195316,-0.277554 0.292974,-0.565388 0.292974,-0.863502 0,-0.133637 -0.01542,-0.256995 -0.04626,-0.370072 -0.02056,-0.113078 -0.06682,-0.231296 -0.138778,-0.354653 -0.06168,-0.123357 -0.138778,-0.236435 -0.231295,-0.339233 -0.08224,-0.113077 -0.200455,-0.236435 -0.354652,-0.370072 -0.154197,-0.143917 -0.375212,-0.323813 -0.663046,-0.539689 L 40.94253,14.852748 c -0.801823,-0.627067 -1.413471,-1.120496 -1.834942,-1.480289 -0.421471,-0.359792 -0.776123,-0.724724 -1.063957,-1.094797 -0.287834,-0.380352 -0.50885,-0.776124 -0.663047,-1.187315 -0.143917,-0.421472 -0.215875,-0.848083 -0.215875,-1.2798337 0,-0.7504247 0.226155,-1.46487 0.678466,-2.143336 0.46259,-0.6784653 1.130776,-1.171895 2.004558,-1.480289 0.873781,-0.3186733 1.90176,-0.47801 3.083935,-0.47801 1.346652,0 2.8989,0.1593367 4.656743,0.47801 l 0.200456,3.222713 c -1.192455,-0.48315 -2.338651,-0.724725 -3.438588,-0.724725 -0.596228,0 -1.120497,0.061679 -1.572807,0.185036 -0.442031,0.113078 -0.760705,0.2929743 -0.95602,0.539689 -0.195316,0.2364353 -0.292974,0.5037096 -0.292974,0.8018227 0,0.174757 0.03084,0.349513 0.09252,0.52427 0.06168,0.164477 0.169618,0.339233 0.323813,0.524269 0.154197,0.185037 0.328953,0.359793 0.524269,0.524269 0.205596,0.164477 0.627067,0.48829 1.264414,0.97144 0.637347,0.48315 1.192455,0.920041 1.665325,1.310673 0.48315,0.390631 0.878922,0.786403 1.187315,1.187315 0.308393,0.390632 0.544828,0.812103 0.709305,1.264414 0.164477,0.45231 0.246715,0.90976 0.246715,1.372351 0,0.770984 -0.236435,1.485429 -0.709305,2.143335 -0.47287,0.657906 -1.187315,1.171895 -2.143335,1.541968 -0.95602,0.370072 -2.025118,0.555108 -3.207293,0.555108 -0.616787,0 -1.367212,-0.0514 -2.251273,-0.154197 -0.884062,-0.09252 -1.829802,-0.262134 -2.837221,-0.508849 z"
             id="path975" />
          <path
             style="color:#000000;font-style:normal;font-variant:normal;font-weight:normal;font-stretch:normal;font-size:31.5795px;line-height:1.25;font-family:'Eras Demi ITC';-inkscape-font-specification:'Eras Demi ITC, Normal';font-variant-ligatures:normal;font-variant-position:normal;font-variant-caps:normal;font-variant-numeric:normal;font-variant-alternates:normal;font-variant-east-asian:normal;font-feature-settings:normal;font-variation-settings:normal;text-indent:0;text-align:start;text-decoration:none;text-decoration-line:none;text-decoration-style:solid;text-decoration-color:#000000;letter-spacing:normal;word-spacing:normal;text-transform:none;writing-mode:lr-tb;direction:ltr;text-orientation:mixed;dominant-baseline:auto;baseline-shift:baseline;text-anchor:start;white-space:normal;shape-padding:0;shape-margin:0;inline-size:0;clip-rule:nonzero;display:inline;overflow:visible;visibility:visible;isolation:auto;mix-blend-mode:normal;color-interpolation:sRGB;color-interpolation-filters:linearRGB;solid-color:#000000;solid-opacity:1;vector-effect:none;fill:#593900;fill-opacity:1;fill-rule:nonzero;stroke:none;stroke-linecap:butt;stroke-linejoin:miter;stroke-miterlimit:4;stroke-dasharray:none;stroke-dashoffset:0;stroke-opacity:1;color-rendering:auto;image-rendering:auto;shape-rendering:auto;text-rendering:auto;enable-background:accumulate;stop-color:#000000;stop-opacity:1"
             d="m 42.931641,5.3144531 c -1.216924,0 -2.289557,0.1640531 -3.216797,0.5019531 -0.937522,0.3314558 -1.685701,0.8786106 -2.197266,1.6289063 l -0.002,0.00195 c -0.48957,0.7343557 -0.746094,1.5335471 -0.746094,2.3632813 0,0.4756112 0.08104,0.9477232 0.238281,1.4082032 l 0.002,0.0039 0.002,0.0059 c 0.168501,0.449333 0.408126,0.879222 0.716797,1.287109 l 0.002,0.002 0.002,0.002 c 0.307098,0.394841 0.680589,0.77797 1.11914,1.152344 0.429358,0.366525 1.043413,0.863228 1.847657,1.492187 l 0.833984,0.664063 0.0059,0.0039 c 0.281218,0.210914 0.492303,0.384223 0.628907,0.511719 l 0.0059,0.0059 0.0059,0.0039 c 0.138802,0.120295 0.238202,0.226698 0.294921,0.304687 l 0.01172,0.01563 0.01367,0.01563 c 0.06918,0.07686 0.125886,0.159978 0.171875,0.251953 l 0.0059,0.01172 0.0059,0.0098 c 0.05375,0.09215 0.08122,0.168374 0.0918,0.226562 l 0.002,0.01758 0.0039,0.01563 c 0.02045,0.07499 0.0332,0.164307 0.0332,0.267578 0,0.21054 -0.06392,0.409419 -0.21875,0.63086 -0.138959,0.189261 -0.3611,0.350607 -0.705078,0.474609 -0.0011,3.96e-4 -8.53e-4,0.0016 -0.002,0.002 -0.345399,0.114129 -0.794972,0.177735 -1.347656,0.177735 -0.551321,0 -1.165428,-0.07346 -1.841797,-0.222657 -0.668011,-0.157572 -1.503528,-0.436668 -2.496094,-0.841796 l -0.607422,-0.248047 0.433594,4.322265 0.271484,0.06641 c 1.020919,0.250021 1.981049,0.422815 2.884766,0.517579 0.894523,0.104014 1.658157,0.15625 2.296875,0.15625 1.223366,0 2.342507,-0.192186 3.349609,-0.582032 1.009027,-0.390591 1.796287,-0.94789 2.322266,-1.679687 0.515521,-0.717246 0.783203,-1.52136 0.783203,-2.373047 0,-0.509375 -0.09224,-1.014884 -0.271484,-1.507813 -0.178587,-0.491112 -0.435757,-0.948099 -0.767578,-1.36914 l -0.002,-0.0039 c -0.330987,-0.429692 -0.748614,-0.844625 -1.25,-1.25 -0.477762,-0.394587 -1.034404,-0.833635 -1.673828,-1.31836 -0.632525,-0.479495 -1.051011,-0.799955 -1.25,-0.958984 l -0.0078,-0.0059 c -0.175518,-0.148519 -0.330247,-0.304888 -0.466797,-0.46875 -0.131996,-0.158396 -0.212502,-0.296183 -0.253906,-0.404296 -0.04794,-0.135814 -0.07031,-0.264263 -0.07031,-0.392578 0,-0.2119048 0.05774,-0.3771507 0.201172,-0.5507819 l 0.0039,-0.00195 0.002,-0.00391 C 42.254438,9.498197 42.486224,9.3514076 42.875,9.2519531 h 0.0039 l 0.002,-0.00195 c 0.409832,-0.1117724 0.899746,-0.1699219 1.46875,-0.1699219 1.042139,0 2.137711,0.2280253 3.291016,0.6953125 l 0.58199,0.2363253 -0.259765,-4.1582034 -0.304688,-0.054687 C 45.882951,5.4769988 44.30943,5.3144531 42.931641,5.3144531 Z m 0,0.7890625 c 1.229225,0 2.68465,0.166106 4.285156,0.4414063 L 47.363281,8.921875 C 46.338135,8.5686923 45.322007,8.2910156 44.349609,8.2910156 c -0.621301,0 -1.176402,0.063276 -1.669921,0.1972656 -0.493687,0.1262922 -0.896984,0.3383883 -1.164063,0.6738282 -0.245384,0.2986233 -0.382813,0.665994 -0.382813,1.0488286 0,0.221198 0.03981,0.44255 0.115235,0.65625 l 0.002,0.0039 0.002,0.0039 c 0.08257,0.220169 0.214224,0.427379 0.388672,0.636719 0.169847,0.203817 0.362264,0.395731 0.574219,0.574219 l 0.0039,0.0039 0.0039,0.002 c 0.213741,0.170992 0.633237,0.494683 1.271485,0.978515 0.633986,0.480603 1.185002,0.914717 1.652343,1.300782 h 0.002 l 0.002,0.002 c 0.463738,0.374937 0.837618,0.750036 1.123047,1.121094 l 0.002,0.002 v 0.002 c 0.283627,0.359261 0.498567,0.742153 0.648437,1.154297 0.149706,0.411692 0.222656,0.822475 0.222656,1.238281 0,0.690281 -0.204546,1.313543 -0.634765,1.912109 -0.419761,0.584015 -1.061831,1.054744 -1.964844,1.404297 -0.904938,0.350298 -1.923469,0.529297 -3.064453,0.529297 -0.594857,0 -1.331479,-0.05076 -2.205078,-0.152344 h -0.0039 -0.002 c -0.779741,-0.0816 -1.628469,-0.245076 -2.513672,-0.451172 l -0.25,-2.488281 c 0.732497,0.277375 1.454041,0.545597 2.015626,0.677735 l 0.0039,0.002 h 0.002 c 0.721682,0.159194 1.391145,0.240234 2.011719,0.240234 0.615957,0 1.149824,-0.06882 1.605468,-0.220703 h 0.0039 l 0.0059,-0.002 c 0.454864,-0.163284 0.82681,-0.411954 1.078125,-0.755859 l 0.002,-0.002 0.002,-0.0039 c 0.233595,-0.33195 0.365235,-0.705521 0.365235,-1.089844 0,-0.157277 -0.0208,-0.30952 -0.05859,-0.455078 -0.03094,-0.159307 -0.091,-0.311779 -0.175781,-0.458984 -0.07337,-0.144072 -0.164459,-0.277064 -0.271485,-0.398438 -0.103532,-0.139199 -0.23215,-0.271877 -0.390625,-0.410156 l -0.002,-0.002 c -0.169526,-0.15785 -0.396235,-0.342549 -0.683902,-0.558677 l -0.0078,-0.0059 -0.826172,-0.658203 -0.002,-0.002 c -0.799403,-0.625174 -1.408681,-1.11569 -1.822266,-1.46875 -0.402845,-0.343892 -0.735851,-0.689209 -1.003906,-1.033204 -0.265698,-0.3511 -0.467614,-0.710905 -0.607422,-1.082031 -0.129224,-0.380461 -0.193359,-0.76062 -0.193359,-1.1464841 0,-0.6711152 0.19823,-1.3012519 0.613281,-1.9238281 0.413026,-0.6047434 0.998898,-1.0430392 1.806641,-1.328125 h 0.002 0.002 C 40.802427,6.2594665 41.784994,6.1034276 42.9317,6.1034276 Z"
             id="path977" />
        </g>
        <g
           id="path1131"
           style="opacity:1">
          <path
             style="color:#000000;font-style:normal;font-variant:normal;font-weight:normal;font-stretch:normal;font-size:31.5795px;line-height:1.25;font-family:'Eras Demi ITC';-inkscape-font-specification:'Eras Demi ITC, Normal';font-variant-ligatures:normal;font-variant-position:normal;font-variant-caps:normal;font-variant-numeric:normal;font-variant-alternates:normal;font-variant-east-asian:normal;font-feature-settings:normal;font-variation-settings:normal;text-indent:0;text-align:start;text-decoration:none;text-decoration-line:none;text-decoration-style:solid;text-decoration-color:#000000;letter-spacing:normal;word-spacing:normal;text-transform:none;writing-mode:lr-tb;direction:ltr;text-orientation:mixed;dominant-baseline:auto;baseline-shift:baseline;text-anchor:start;white-space:normal;shape-padding:0;shape-margin:0;inline-size:0;clip-rule:nonzero;display:inline;overflow:visible;visibility:visible;isolation:auto;mix-blend-mode:normal;color-interpolation:sRGB;color-interpolation-filters:linearRGB;solid-color:#000000;solid-opacity:1;vector-effect:none;fill:#593900;fill-opacity:1;fill-rule:nonzero;stroke:none;stroke-width:0.78949;stroke-linecap:butt;stroke-linejoin:miter;stroke-miterlimit:4;stroke-dasharray:none;stroke-dashoffset:0;stroke-opacity:1;color-rendering:auto;image-rendering:auto;shape-rendering:auto;text-rendering:auto;enable-background:accumulate;stop-color:#000000;stop-opacity:1"
             d="m 48.760308,28.853816 c -0.185036,-1.541968 -0.334093,-2.652185 -0.447171,-3.330651 0.986859,0.462591 1.91718,0.693886 2.790962,0.693886 0.267275,0 0.539689,-0.03598 0.817243,-0.107938 0.277554,-0.06168 0.534549,-0.154198 0.770984,-0.277554 0.154197,-0.08224 0.308393,-0.200456 0.46259,-0.354653 0.164477,-0.154197 0.385492,-0.436891 0.663046,-0.848082 0.277555,-0.411191 0.51913,-0.817243 0.724725,-1.218155 0.164477,-0.339233 0.334093,-0.765844 0.508849,-1.279833 L 51.844244,12.740252 49.500452,6.0789513 c 1.079378,0.02056 1.855502,0.03084 2.328372,0.03084 0.544829,0 1.259274,-0.01028 2.143335,-0.03084 0.215875,0.853222 0.416331,1.5933663 0.601367,2.220433 l 1.46487,4.8417797 c 0.452311,1.490569 0.776124,2.611065 0.97144,3.36149 0.123357,0.493429 0.267274,1.146196 0.431751,1.958299 0.308393,-0.935461 0.575668,-1.696165 0.801823,-2.282112 0.400911,-1.069098 0.96116,-2.497988 1.680745,-4.286671 l 1.495708,-3.6853037 c 0.267275,-0.657906 0.539689,-1.367211 0.817243,-2.127915 0.925181,0.02056 1.629346,0.03084 2.112496,0.03084 0.442031,0 1.182175,-0.01028 2.220434,-0.03084 L 60.63346,19.386134 58.058374,25.261031 c -0.359793,0.760704 -0.704166,1.351792 -1.033119,1.773263 -0.267274,0.359793 -0.560248,0.668186 -0.878921,0.92518 -0.308394,0.246715 -0.637347,0.452311 -0.98686,0.616788 -0.442031,0.205595 -0.920041,0.370072 -1.43403,0.493429 -0.585947,0.123357 -1.177035,0.185036 -1.773263,0.185036 -0.339233,0 -0.812103,-0.03084 -1.41861,-0.09252 -0.606507,-0.06168 -1.197595,-0.164478 -1.773263,-0.308393 z"
             id="path981" />
          <path
             style="color:#000000;font-style:normal;font-variant:normal;font-weight:normal;font-stretch:normal;font-size:31.5795px;line-height:1.25;font-family:'Eras Demi ITC';-inkscape-font-specification:'Eras Demi ITC, Normal';font-variant-ligatures:normal;font-variant-position:normal;font-variant-caps:normal;font-variant-numeric:normal;font-variant-alternates:normal;font-variant-east-asian:normal;font-feature-settings:normal;font-variation-settings:normal;text-indent:0;text-align:start;text-decoration:none;text-decoration-line:none;text-decoration-style:solid;text-decoration-color:#000000;letter-spacing:normal;word-spacing:normal;text-transform:none;writing-mode:lr-tb;direction:ltr;text-orientation:mixed;dominant-baseline:auto;baseline-shift:baseline;text-anchor:start;white-space:normal;shape-padding:0;shape-margin:0;inline-size:0;clip-rule:nonzero;display:inline;overflow:visible;visibility:visible;isolation:auto;mix-blend-mode:normal;color-interpolation:sRGB;color-interpolation-filters:linearRGB;solid-color:#000000;solid-opacity:1;vector-effect:none;fill:#593900;fill-opacity:1;fill-rule:nonzero;stroke:none;stroke-linecap:butt;stroke-linejoin:miter;stroke-miterlimit:4;stroke-dasharray:none;stroke-dashoffset:0;stroke-opacity:1;color-rendering:auto;image-rendering:auto;shape-rendering:auto;text-rendering:auto;enable-background:accumulate;stop-color:#000000;stop-opacity:1"
             d="M 67.183594,5.671875 66.5625,5.6835938 c -1.03715,0.020538 -1.77698,0.03125 -2.212891,0.03125 -0.47755,-10e-8 -1.17986,-0.010724 -2.103515,-0.03125 l -0.283203,-0.00586 -0.0957,0.265625 c -0.27613,0.7567994 -0.54726,1.4623355 -0.8125,2.1152344 L 59.558597,11.74414 c -0.720275,1.790397 -1.282786,3.222843 -1.685547,4.296875 -0.09816,0.254432 -0.231231,0.665729 -0.34375,0.982422 -0.04302,-0.187288 -0.09746,-0.460144 -0.136719,-0.617188 v -0.002 -0.002 c -0.197978,-0.760652 -0.523491,-1.881926 -0.976562,-3.375 L 54.951172,8.1875 V 8.18555 C 54.768221,7.5654479 54.570229,6.8312358 54.355469,5.9824219 l -0.07813,-0.3046875 -0.314453,0.00586 c -0.882177,0.020516 -1.594903,0.03125 -2.134766,0.03125 -0.467149,0 -1.242032,-0.010711 -2.320313,-0.03125 l -0.568359,-0.00977 2.53125,7.1953126 3.160156,9.251953 c -0.153759,0.439941 -0.303744,0.829231 -0.443359,1.117187 -0.196882,0.383132 -0.429421,0.773116 -0.697266,1.169922 -0.270126,0.400187 -0.487891,0.671022 -0.605468,0.78125 l -0.0039,0.0039 -0.0059,0.0039 c -0.132487,0.132487 -0.257126,0.225414 -0.369141,0.285156 h 0.0039 c -0.204195,0.106535 -0.427504,0.187447 -0.673828,0.242187 h -0.0078 l -0.0059,0.002 c -0.247758,0.06423 -0.486902,0.0957 -0.71875,0.0957 -0.804121,0 -1.676729,-0.212663 -2.623047,-0.65625 l -0.679688,-0.31836 0.123047,0.740235 c 0.110846,0.665072 0.260594,1.773176 0.445313,3.3125 l 0.03125,0.269531 0.263671,0.06641 c 0.594441,0.148609 1.205334,0.254825 1.830079,0.31836 0.613877,0.06243 1.095827,0.0957 1.458984,0.0957 0.623452,0 1.241156,-0.06639 1.853516,-0.195313 h 0.0059 l 0.0059,-0.002 c 0.537411,-0.128979 1.040106,-0.301994 1.507813,-0.519531 h 0.002 c 0.377844,-0.177809 0.732669,-0.400589 1.064453,-0.666016 h 0.002 c 0.344322,-0.277678 0.657757,-0.609685 0.941407,-0.990234 l 0.002,-0.0039 c 0.35614,-0.456951 0.711247,-1.068068 1.078125,-1.84375 l 0.002,-0.0059 2.576172,-5.878906 z M 53.671875,6.4765625 c 0.184085,0.7153813 0.361624,1.3852266 0.523437,1.9335937 v 0.00195 l 1.464844,4.8437498 c 0.45155,1.488063 0.774143,2.605506 0.966797,3.345703 0.120863,0.483744 0.264296,1.130522 0.427735,1.9375 l 0.294921,1.458985 0.466797,-1.414063 c 0.307083,-0.931486 0.572473,-1.687326 0.794922,-2.263672 l 0.002,-0.002 c 0.398842,-1.063578 0.957457,-2.491756 1.675781,-4.277343 l 0.002,-0.002 1.49414,-3.6835934 c 0.236339,-0.5817568 0.476931,-1.2188483 0.720703,-1.8789063 0.755381,0.01557 1.418907,0.027344 1.84375,0.027344 0.323253,0 0.977451,-0.012716 1.607422,-0.023437 l -5.685547,12.7460927 -2.570312,5.865235 c -0.35196,0.744142 -0.685299,1.313525 -0.986328,1.699219 l -0.0039,0.0039 -0.002,0.0039 c -0.249319,0.335622 -0.519966,0.619177 -0.810546,0.853515 -0.284375,0.227234 -0.585876,0.415642 -0.90625,0.566407 -0.415101,0.193069 -0.866606,0.347231 -1.355469,0.464843 -0.0015,3.55e-4 -0.0024,0.0016 -0.0039,0.002 -0.555687,0.116158 -1.11465,0.173828 -1.679687,0.173828 -0.315308,0 -0.779769,-0.02891 -1.378906,-0.08984 -0.500024,-0.05085 -0.983643,-0.145679 -1.460938,-0.253906 -0.13257,-1.087945 -0.237972,-1.858564 -0.332031,-2.478515 0.793342,0.299392 1.581304,0.574218 2.322266,0.574218 0.29881,0 0.600925,-0.03951 0.904296,-0.117187 6.16e-4,-1.37e-4 0.0013,1.37e-4 0.002,0 0.308095,-0.06863 0.597094,-0.172603 0.865234,-0.3125 h 0.002 l 0.002,-0.002 c 0.196379,-0.104735 0.378781,-0.247921 0.554688,-0.423829 0.209377,-0.198094 0.429016,-0.488588 0.710937,-0.90625 0.285552,-0.423039 0.536497,-0.843433 0.75,-1.259765 l 0.002,-0.0039 0.002,-0.0039 c 0.174677,-0.360272 0.348958,-0.799554 0.527343,-1.324219 l 0.04297,-0.126953 -3.251953,-9.519531 -2.15625,-6.1308587 c 0.706014,0.011795 1.405434,0.023437 1.767578,0.023437 0.470969,0 1.12634,-0.012216 1.84375,-0.027344 z"
             id="path983" />
        </g>
        <path
           id="path1133"
           style="font-style:normal;font-variant:normal;font-weight:normal;font-stretch:normal;font-size:31.5795px;font-family:'Eras Demi ITC';-inkscape-font-specification:'Eras Demi ITC, Normal';font-variant-ligatures:normal;font-variant-caps:normal;font-variant-numeric:normal;font-variant-east-asian:normal;fill:#320032;fill-opacity:1;stroke:none;stroke-width:0.78949"
           d="m 68.019486,21.760764 q 0.292974,-3.268972 0.400912,-5.350628 0.107938,-2.081657 0.277554,-7.1084727 0.169616,-5.026815 0.169616,-6.908015 0,-0.570528 -0.01542,-1.68074507 1.942879,0.03084 3.222712,0.03084 1.295253,0 3.191874,-0.04626 1.89662,-0.04626 3.130194,-0.04626 1.727004,0 2.590506,0.154197 0.878922,0.138777 1.557388,0.43175097 0.678466,0.2929741 1.141056,0.7247251 0.46259,0.416331 0.786403,1.002279 0.339233,0.570528 0.49343,1.248994 0.169617,0.663046 0.169617,1.356931 0,0.863502 -0.215876,1.649906 -0.200456,0.770984 -0.601367,1.40319 -0.385492,0.616788 -0.909761,1.063958 -0.524269,0.4317507 -1.002279,0.6784657 -0.47801,0.246716 -1.279834,0.52427 0.724725,0.154197 1.156476,0.308394 0.431751,0.138777 0.925181,0.44717 0.49343,0.292974 0.925181,0.770984 0.44717,0.462591 0.709305,0.98686 0.262134,0.524269 0.400911,1.171895 0.154197,0.632207 0.154197,1.326092 0,1.480289 -0.647626,2.713864 -0.632207,1.233574 -1.757844,1.958299 -1.125636,0.709305 -2.528827,0.95602 -1.387771,0.231295 -5.921156,0.231295 l -3.731562,-0.01542 z M 73.061721,9.4404403 h 2.482568 q 1.588227,0 2.127916,-0.0771 0.555108,-0.0771 1.156475,-0.292974 0.601368,-0.231295 1.017699,-0.693885 0.416331,-0.47801 0.601368,-1.033119 0.200455,-0.570528 0.200455,-1.156476 0,-0.570528 -0.215875,-1.079377 -0.200456,-0.508849 -0.632207,-0.832663 -0.431751,-0.339233 -1.048538,-0.47801 -0.601367,-0.154196 -1.773263,-0.154196 h -3.700723 z m -0.370072,9.2980667 h 3.500266 q 1.063958,0 1.649906,-0.0771 0.601367,-0.09252 1.141056,-0.308394 0.539689,-0.215875 0.848082,-0.46259 0.308394,-0.246715 0.539689,-0.632207 0.246715,-0.385492 0.385492,-0.863502 0.138777,-0.49343 0.138777,-1.017699 0,-0.709305 -0.246715,-1.248994 -0.246715,-0.539688 -0.740144,-0.92518 -0.47801,-0.400912 -1.125637,-0.570528 -0.647626,-0.185036 -1.973718,-0.185036 h -3.885759 z" />
        <path
           id="path1135"
           style="font-style:normal;font-variant:normal;font-weight:normal;font-stretch:normal;font-size:31.5795px;font-family:'Eras Demi ITC';-inkscape-font-specification:'Eras Demi ITC, Normal';font-variant-ligatures:normal;font-variant-caps:normal;font-variant-numeric:normal;font-variant-east-asian:normal;fill:#320032;fill-opacity:1;stroke:none;stroke-width:0.78949"
           d="m 104.28657,21.760764 q -1.35693,-0.03084 -2.08165,-0.03084 -0.90977,0 -2.06625,0.03084 l 0.0308,-2.559667 q -0.431747,0.647627 -0.755567,1.048539 -0.32381,0.385491 -0.84808,0.770983 -0.52427,0.370073 -1.14105,0.601368 -0.61679,0.215875 -1.41861,0.354652 -0.78641,0.154197 -1.68075,0.154197 -1.727,0 -3.00684,-0.493429 -1.27983,-0.50885 -2.03539,-1.526549 -0.74015,-1.017698 -0.74015,-2.914319 v -0.323813 l 0.24672,-3.978277 0.23129,-5.2426907 q 0.0154,-0.632207 0.0154,-1.572807 1.46487,0.03084 2.29753,0.03084 0.87892,0 2.12792,-0.03084 l -0.50885,7.0313737 q -0.0463,0.817243 -0.0771,1.387771 -0.0154,0.555108 -0.0154,0.801823 0,1.110217 0.32381,1.850361 0.33924,0.724725 1.15648,1.110217 0.83266,0.385492 1.77326,0.385492 0.89434,0 1.69617,-0.339233 0.72472,-0.308393 1.23357,-0.863502 0.52427,-0.555108 0.87892,-1.495709 0.262137,-0.678465 0.400907,-1.8812 0.10794,-0.848083 0.20046,-2.914319 0.12337,-2.4979887 0.16963,-5.0730747 1.52655,0.03084 2.32837,0.03084 0.90976,0 2.05082,-0.03084 -0.18504,2.205014 -0.3855,5.5202447 -0.20045,3.299811 -0.27755,5.458566 -0.0771,2.143335 -0.12336,4.703002 z" />
        <path
           id="path1137"
           style="font-style:normal;font-variant:normal;font-weight:normal;font-stretch:normal;font-size:31.5795px;font-family:'Eras Demi ITC';-inkscape-font-specification:'Eras Demi ITC, Normal';font-variant-ligatures:normal;font-variant-caps:normal;font-variant-numeric:normal;font-variant-east-asian:normal;fill:#320032;fill-opacity:1;stroke:none;stroke-width:0.78949"
           d="m 117.73253,18.538051 q -0.18503,0.848083 -0.58594,3.145615 -1.29526,0.292973 -2.0354,0.370072 -0.74015,0.0771 -1.38777,0.0771 -1.14106,0 -2.05082,-0.215875 -0.89434,-0.215876 -1.48029,-0.755564 -0.58595,-0.555109 -0.80182,-1.279834 -0.20046,-0.740144 -0.20046,-1.526548 0,-0.200456 0.0154,-0.539689 0.0154,-0.339232 0.12336,-2.189594 l 0.35465,-6.4145867 h -2.22043 q 0.0771,-0.92518 0.13878,-2.975998 h 2.32837 q 0.0925,-0.894341 0.18503,-3.037676 l 1.81952,-0.354653 q 0.57053,-0.107937 2.20502,-0.508849 -0.10794,2.081656 -0.12336,3.901178 h 3.9166 q -0.10794,2.081657 -0.10794,2.975998 h -3.93202 q -0.32381,6.2758097 -0.32381,7.2626687 0,0.95602 0.20046,1.48029 0.21587,0.524269 0.67846,0.755564 0.46259,0.231295 0.98686,0.231295 0.38549,0 0.80183,-0.06168 0.43175,-0.06168 1.4957,-0.339233 z" />
        <path
           id="path1139"
           style="font-style:normal;font-variant:normal;font-weight:normal;font-stretch:normal;font-size:31.5795px;font-family:'Eras Demi ITC';-inkscape-font-specification:'Eras Demi ITC, Normal';font-variant-ligatures:normal;font-variant-caps:normal;font-variant-numeric:normal;font-variant-east-asian:normal;fill:#320032;fill-opacity:1;stroke:none;stroke-width:0.78949"
           d="m 129.45149,18.538051 q -0.18504,0.848083 -0.58595,3.145615 -1.29525,0.292973 -2.0354,0.370072 -0.74014,0.0771 -1.38777,0.0771 -1.14105,0 -2.05081,-0.215875 -0.89434,-0.215876 -1.48029,-0.755564 -0.58595,-0.555109 -0.80183,-1.279834 -0.20045,-0.740144 -0.20045,-1.526548 0,-0.200456 0.0154,-0.539689 0.0154,-0.339232 0.12336,-2.189594 l 0.35465,-6.4145867 h -2.22044 q 0.0771,-0.92518 0.13878,-2.975998 h 2.32837 q 0.0925,-0.894341 0.18504,-3.037676 l 1.81952,-0.354653 q 0.57053,-0.107937 2.20501,-0.508849 -0.10793,2.081656 -0.12335,3.901178 h 3.9166 q -0.10794,2.081657 -0.10794,2.975998 h -3.93202 q -0.32381,6.2758097 -0.32381,7.2626687 0,0.95602 0.20045,1.48029 0.21588,0.524269 0.67847,0.755564 0.46259,0.231295 0.98686,0.231295 0.38549,0 0.80182,-0.06168 0.43175,-0.06168 1.49571,-0.339233 z" />
        <path
           id="path1141"
           style="font-style:normal;font-variant:normal;font-weight:normal;font-stretch:normal;font-size:31.5795px;font-family:'Eras Demi ITC';-inkscape-font-specification:'Eras Demi ITC, Normal';font-variant-ligatures:normal;font-variant-caps:normal;font-variant-numeric:normal;font-variant-east-asian:normal;fill:#320032;fill-opacity:1;stroke:none;stroke-width:0.78949"
           d="m 139.98313,5.7088783 q 1.77326,0 3.39233,0.539689 1.63449,0.524269 2.76012,1.572807 1.14106,1.033119 1.71159,2.5442467 0.57052,1.49571 0.57052,3.161035 0,1.757843 -0.60136,3.392329 -0.60137,1.634486 -1.74243,2.837221 -1.14105,1.187315 -2.85264,1.788682 -1.69616,0.585948 -3.62362,0.585948 -1.78868,0 -3.40775,-0.524269 -1.60365,-0.539689 -2.7447,-1.603646 -1.14106,-1.063958 -1.74243,-2.590506 -0.58594,-1.526548 -0.58594,-3.191873 0,-1.696165 0.53968,-3.238133 0.53969,-1.5419687 1.68075,-2.7447027 1.15648,-1.202735 2.94516,-1.865782 1.78868,-0.663046 3.70072,-0.663046 z m 0,3.176454 q -1.34151,0 -2.40547,0.663046 -1.04854,0.6476267 -1.57281,1.9428807 -0.50885,1.295252 -0.50885,2.821801 0,1.341512 0.41634,2.39005 0.43175,1.048538 1.38777,1.696164 0.97144,0.647627 2.29753,0.647627 1.35693,0 2.37463,-0.663046 1.03312,-0.678466 1.54197,-1.973719 0.52427,-1.310673 0.52427,-2.88348 0,-1.279833 -0.40092,-2.328371 -0.40091,-1.048539 -1.35693,-1.6807457 -0.9406,-0.632207 -2.29753,-0.632207 z" />
        <path
           id="path1143"
           style="font-style:normal;font-variant:normal;font-weight:normal;font-stretch:normal;font-size:31.5795px;font-family:'Eras Demi ITC';-inkscape-font-specification:'Eras Demi ITC, Normal';font-variant-ligatures:normal;font-variant-caps:normal;font-variant-numeric:normal;font-variant-east-asian:normal;fill:#320032;fill-opacity:1;stroke:none;stroke-width:0.78949"
           d="m 150.9311,21.760764 q 0.35465,-3.500267 0.58595,-7.864036 0.24671,-4.3637697 0.27755,-7.8177767 1.41861,0.03084 2.26669,0.03084 1.00228,0 2.12792,-0.03084 l -0.16962,2.621345 q 0.47801,-0.678466 0.83267,-1.079378 0.37007,-0.400911 0.92518,-0.786403 0.57053,-0.385492 1.20273,-0.616787 0.64763,-0.231295 1.43403,-0.370073 0.80183,-0.138777 1.66533,-0.138777 1.37235,0 2.62134,0.354653 1.26442,0.339233 2.0354,1.094797 0.77098,0.755564 1.0177,1.649906 0.24671,0.894341 0.24671,1.8966207 0,0.416331 -0.0463,1.326092 l -0.32381,6.738399 q -0.0617,1.403191 -0.0771,2.991418 -1.21815,-0.03084 -2.08165,-0.03084 -1.1719,0 -2.35921,0.03084 0.12335,-1.341512 0.30839,-4.672162 0.18504,-3.346071 0.18504,-4.425448 0,-1.218155 -0.3855,-1.958299 -0.38549,-0.7401457 -1.20273,-1.1256377 -0.80182,-0.385491 -1.74243,-0.385491 -0.92518,0 -1.727,0.354652 -0.80182,0.354653 -1.38777,1.0331197 -0.61679,0.693885 -0.95602,1.711584 -0.35465,1.079377 -0.52427,3.561945 -0.1542,2.205014 -0.24671,5.905737 -1.18732,-0.03084 -2.14334,-0.03084 -0.97144,0 -2.35921,0.03084 z" />
      </g>
      <path
         style="color:#000000;font-style:normal;font-variant:normal;font-weight:normal;font-stretch:normal;font-size:medium;line-height:normal;font-family:sans-serif;font-variant-ligatures:normal;font-variant-position:normal;font-variant-caps:normal;font-variant-numeric:normal;font-variant-alternates:normal;font-variant-east-asian:normal;font-feature-settings:normal;font-variation-settings:normal;text-indent:0;text-align:start;text-decoration:none;text-decoration-line:none;text-decoration-style:solid;text-decoration-color:#000000;letter-spacing:normal;word-spacing:normal;text-transform:none;writing-mode:lr-tb;direction:ltr;text-orientation:mixed;dominant-baseline:auto;baseline-shift:baseline;text-anchor:start;white-space:normal;shape-padding:0;shape-margin:0;inline-size:0;clip-rule:nonzero;display:inline;overflow:visible;visibility:visible;opacity:1;isolation:auto;mix-blend-mode:normal;color-interpolation:sRGB;color-interpolation-filters:linearRGB;solid-color:#000000;solid-opacity:1;vector-effect:none;fill:#593900;fill-opacity:1;fill-rule:nonzero;stroke:none;stroke-linecap:butt;stroke-linejoin:bevel;stroke-miterlimit:4;stroke-dasharray:none;stroke-dashoffset:0;stroke-opacity:1;color-rendering:auto;image-rendering:auto;shape-rendering:auto;text-rendering:auto;enable-background:accumulate;stop-color:#000000;stop-opacity:1"
         d="m 17.826172,0.71289062 c -2.405009,0 -6.358452,-0.31670892 -10.060547,1.03515628 C 5.9145774,2.4239795 4.0861626,3.5942599 2.7890625,5.4589844 1.4919624,7.3237088 0.78710937,9.7861043 0.78710938,12.796875 v 0.08789 c 0,3.126945 0.68897812,5.604053 2.04492182,7.427734 1.3559438,1.823681 3.300046,2.819907 5.1835938,3.275391 3.767096,0.910968 7.673649,0.142578 9.810547,0.142578 V 19.11914 c -2.936915,0 -6.395486,0.550034 -8.7265626,-0.01367 C 7.9340711,18.823616 7.1469607,18.386022 6.5332031,17.560547 5.9194456,16.735072 5.4003906,15.347563 5.4003906,12.884766 v -0.08789 c 0,-2.313508 0.501227,-3.7361867 1.1738282,-4.703125 C 7.2468199,7.1268117 8.1496177,6.5175565 9.3476562,6.0800781 11.743733,5.2051214 15.157368,5.3242187 17.826172,5.3242188 Z"
         id="rect21" />
      <g
         id="rect1125"
         style="opacity:1">
        <path
           style="color:#000000;font-style:normal;font-variant:normal;font-weight:normal;font-stretch:normal;font-size:medium;line-height:normal;font-family:sans-serif;font-variant-ligatures:normal;font-variant-position:normal;font-variant-caps:normal;font-variant-numeric:normal;font-variant-alternates:normal;font-variant-east-asian:normal;font-feature-settings:normal;font-variation-settings:normal;text-indent:0;text-align:start;text-decoration:none;text-decoration-line:none;text-decoration-style:solid;text-decoration-color:#000000;letter-spacing:normal;word-spacing:normal;text-transform:none;writing-mode:lr-tb;direction:ltr;text-orientation:mixed;dominant-baseline:auto;baseline-shift:baseline;text-anchor:start;white-space:normal;shape-padding:0;shape-margin:0;inline-size:0;clip-rule:nonzero;display:inline;overflow:visible;visibility:visible;isolation:auto;mix-blend-mode:normal;color-interpolation:sRGB;color-interpolation-filters:linearRGB;solid-color:#000000;solid-opacity:1;vector-effect:none;fill:#000000;fill-opacity:0;fill-rule:nonzero;stroke:none;stroke-width:4.61197;stroke-linecap:butt;stroke-linejoin:bevel;stroke-miterlimit:4;stroke-dasharray:none;stroke-dashoffset:0;stroke-opacity:1;color-rendering:auto;image-rendering:auto;shape-rendering:auto;text-rendering:auto;enable-background:accumulate;stop-color:#000000;stop-opacity:1"
           d="m 4.2439011,11.423585 h 7.5214799 v 0.530928 H 4.2439011 Z"
           id="path991" />
        <path
           style="color:#000000;font-style:normal;font-variant:normal;font-weight:normal;font-stretch:normal;font-size:medium;line-height:normal;font-family:sans-serif;font-variant-ligatures:normal;font-variant-position:normal;font-variant-caps:normal;font-variant-numeric:normal;font-variant-alternates:normal;font-variant-east-asian:normal;font-feature-settings:normal;font-variation-settings:normal;text-indent:0;text-align:start;text-decoration:none;text-decoration-line:none;text-decoration-style:solid;text-decoration-color:#000000;letter-spacing:normal;word-spacing:normal;text-transform:none;writing-mode:lr-tb;direction:ltr;text-orientation:mixed;dominant-baseline:auto;baseline-shift:baseline;text-anchor:start;white-space:normal;shape-padding:0;shape-margin:0;inline-size:0;clip-rule:nonzero;display:inline;overflow:visible;visibility:visible;isolation:auto;mix-blend-mode:normal;color-interpolation:sRGB;color-interpolation-filters:linearRGB;solid-color:#000000;solid-opacity:1;vector-effect:none;fill:#593900;fill-opacity:1;fill-rule:nonzero;stroke:none;stroke-linecap:butt;stroke-linejoin:bevel;stroke-miterlimit:4;stroke-dasharray:none;stroke-dashoffset:0;stroke-opacity:1;color-rendering:auto;image-rendering:auto;shape-rendering:auto;text-rendering:auto;enable-background:accumulate;stop-color:#000000;stop-opacity:1"
           d="M 4.2441406,9.1171875 1.9375,11.423828 v 0.53125 l 2.3066406,2.304688 h 7.5214844 l 2.306641,-2.304688 v -0.53125 L 11.765625,9.1171875 Z"
           id="path993" />
      </g>
    </g>
    <g
       aria-label="Data aggregation web panel for Enterprise Resource Planning"
       id="text60"
       style="font-style:normal;font-variant:normal;font-weight:normal;font-stretch:normal;font-size:4.2152px;line-height:1.25;font-family:Dubai;-inkscape-font-specification:'Dubai, Normal';font-variant-ligatures:normal;font-variant-caps:normal;font-variant-numeric:normal;font-variant-east-asian:normal;fill:#ffffff;fill-opacity:1;stroke:none;stroke-width:0.105381"
       transform="matrix(1.6357754,0,0,1.6357754,0.03071056,-0.15355283)">
      <text
         xml:space="preserve"
         style="font-style:normal;font-variant:normal;font-weight:normal;font-stretch:normal;font-size:3.64112px;line-height:1.25;font-family:Consolas;-inkscape-font-specification:'Consolas, Normal';font-variant-ligatures:normal;font-variant-caps:normal;font-variant-numeric:normal;font-variant-east-asian:normal;fill:#ffffff;fill-opacity:1;stroke:none;stroke-width:0.0287779"
         x="3.0441942"
         y="23.665462"
         id="text910"><tspan
           sodipodi:role="line"
           id="tspan908"
           x="3.0441942"
           y="23.665462"
           style="font-style:normal;font-variant:normal;font-weight:normal;font-stretch:normal;font-size:3.64112px;font-family:Consolas;-inkscape-font-specification:'Consolas, Normal';font-variant-ligatures:normal;font-variant-caps:normal;font-variant-numeric:normal;font-variant-east-asian:normal;fill:#ffffff;stroke-width:0.0287779">Data aggregation web panel for Enterprise Resource Planning</tspan></text>
    </g>
    <g
       aria-label="3"
       id="text64"
       style="font-style:normal;font-variant:normal;font-weight:normal;font-stretch:normal;font-size:22.9763px;line-height:1.25;font-family:'Century Schoolbook';-inkscape-font-specification:'Century Schoolbook, Normal';font-variant-ligatures:normal;font-variant-caps:normal;font-variant-numeric:normal;font-variant-east-asian:normal;fill:#593900;fill-opacity:1;stroke:none;stroke-width:0.57441"
       transform="scale(1.2589915)">
      <path
         d="m 154.90829,12.091623 q 2.08442,0.510175 3.25053,1.690865 1.4868,1.501371 1.4868,3.716987 0,2.507145 -1.77833,4.023094 -2.02612,1.74917 -5.27666,1.74917 -1.95324,0 -3.36715,-0.641362 -1.39934,-0.641363 -2.09902,-1.734595 -0.69965,-1.093231 -0.69965,-2.463415 0,-1.107809 0.53932,-1.749171 0.53933,-0.641362 1.3556,-0.641362 0.74341,0 1.19527,0.495598 0.45187,0.481022 0.45187,1.326455 0,0.539327 -0.23322,0.918314 -0.23323,0.364411 -0.81628,0.685092 -0.62678,0.335258 -0.62678,0.641363 0,0.437293 0.43728,0.991197 0.45188,0.539327 1.31188,0.874584 0.87459,0.320682 2.20105,0.320682 2.28849,0 3.38172,-1.122385 1.10782,-1.136961 1.10782,-3.629529 0,-2.609179 -0.94747,-3.702412 -0.93289,-1.107808 -2.7841,-1.107808 -0.4956,0 -1.239,0.116612 -0.59763,0.08746 -0.86,0.08746 -0.4373,0 -0.6851,-0.174917 -0.23322,-0.189494 -0.23322,-0.466446 0,-0.306105 0.21864,-0.466446 0.23322,-0.174917 0.74341,-0.174917 l 0.80169,0.02915 0.69967,0.02915 q 1.85121,0 2.7841,-0.947468 0.93289,-0.9474674 0.93289,-2.9298609 0,-2.4342626 -0.88916,-3.4546123 -0.88917,-1.034926 -2.65291,-1.034926 -1.61798,0 -2.58003,0.5830569 -0.96203,0.583057 -0.96203,1.0786554 0,0.3206813 0.55389,0.8600089 0.78714,0.7288211 0.78714,1.5159479 0,0.5976335 -0.4373,1.0057733 -0.4373,0.4081399 -1.12239,0.4081399 -0.72881,0 -1.19527,-0.5539042 -0.45186,-0.5539041 -0.45186,-1.5451008 0,-1.5451009 1.1078,-2.7403676 1.57425,-1.690865 4.50412,-1.690865 2.74038,0 4.37293,1.4722187 1.63256,1.4722188 1.63256,3.6441057 0,1.5596773 -0.88916,2.6966381 -0.87459,1.136961 -3.03189,2.011547 z"
         style="font-style:normal;font-variant:normal;font-weight:normal;font-stretch:normal;font-size:22.9763px;font-family:'Century Schoolbook';-inkscape-font-specification:'Century Schoolbook, Normal';font-variant-ligatures:normal;font-variant-caps:normal;font-variant-numeric:normal;font-variant-east-asian:normal;fill:#593900;fill-opacity:1;stroke-width:0.746316"
         id="path857" />
    </g>
  </g>
</svg>
