<?xml version="1.0" encoding="UTF-8" standalone="no"?>
<svg
   xmlns:dc="http://purl.org/dc/elements/1.1/"
   xmlns:cc="http://creativecommons.org/ns#"
   xmlns:rdf="http://www.w3.org/1999/02/22-rdf-syntax-ns#"
   xmlns:svg="http://www.w3.org/2000/svg"
   xmlns="http://www.w3.org/2000/svg"
   xmlns:xlink="http://www.w3.org/1999/xlink"
   xmlns:sodipodi="http://sodipodi.sourceforge.net/DTD/sodipodi-0.dtd"
   xmlns:inkscape="http://www.inkscape.org/namespaces/inkscape"
   sodipodi:docname="eb-logo-paths.svg"
   inkscape:version="1.0 (4035a4fb49, 2020-05-01)"
   id="svg8"
   version="1.1"
   viewBox="0 0 175 31"
   height="31mm"
   width="175mm">
  <defs
     id="defs2">
    <linearGradient
       inkscape:collect="always"
       id="linearGradient1167">
      <stop
         style="stop-color:#9c009c;stop-opacity:1"
         offset="0"
         id="stop1163" />
      <stop
         style="stop-color:#800080;stop-opacity:0;"
         offset="1"
         id="stop1165" />
    </linearGradient>
    <linearGradient
       id="linearGradient1151"
       inkscape:collect="always">
      <stop
         id="stop1147"
         offset="0"
         style="stop-color:#800080;stop-opacity:1;" />
      <stop
         id="stop1149"
         offset="1"
         style="stop-color:#800080;stop-opacity:0;" />
    </linearGradient>
    <linearGradient
       gradientUnits="userSpaceOnUse"
       y2="15.234364"
       x2="124.01306"
       y1="13.229841"
       x1="8.151721"
       id="linearGradient1153"
       xlink:href="#linearGradient1167"
       inkscape:collect="always" />
    <linearGradient
       gradientUnits="userSpaceOnUse"
       y2="15.234364"
       x2="124.01306"
       y1="13.229841"
       x1="8.151721"
       id="linearGradient1155"
       xlink:href="#linearGradient1151"
       inkscape:collect="always" />
    <linearGradient
       gradientUnits="userSpaceOnUse"
       y2="21.760763"
       x2="104.28653"
       y1="17.733658"
       x1="34.548756"
       id="linearGradient1157"
       xlink:href="#linearGradient1151"
       inkscape:collect="always" />
  </defs>
  <sodipodi:namedview
     inkscape:window-maximized="1"
     inkscape:window-y="-9"
     inkscape:window-x="-9"
     inkscape:window-height="1321"
     inkscape:window-width="3200"
     showgrid="false"
     inkscape:document-rotation="0"
     inkscape:current-layer="text12"
     inkscape:document-units="mm"
     inkscape:cy="114.90781"
     inkscape:cx="298.44854"
     inkscape:zoom="3.959798"
     inkscape:pageshadow="2"
     inkscape:pageopacity="0.0"
     borderopacity="1.0"
     bordercolor="#666666"
     pagecolor="#ffffff"
     id="base" />
  <metadata
     id="metadata5">
    <rdf:RDF>
      <cc:Work
         rdf:about="">
        <dc:format>image/svg+xml</dc:format>
        <dc:type
           rdf:resource="http://purl.org/dc/dcmitype/StillImage" />
        <dc:title></dc:title>
      </cc:Work>
    </rdf:RDF>
  </metadata>
  <g
     id="layer1"
     inkscape:groupmode="layer"
     inkscape:label="Layer 1">
    <g
       style="font-style:normal;font-variant:normal;font-weight:normal;font-stretch:normal;font-size:31.5795px;line-height:1.25;font-family:'Eras Demi ITC';-inkscape-font-specification:'Eras Demi ITC, Normal';font-variant-ligatures:normal;font-variant-caps:normal;font-variant-numeric:normal;font-variant-east-asian:normal;fill:#000000;fill-opacity:1;stroke:none;stroke-width:0.78949"
       id="text12"
       aria-label="asyButton">
      <path
         id="path1127"
         style="font-style:normal;font-variant:normal;font-weight:normal;font-stretch:normal;font-size:31.5795px;font-family:'Eras Demi ITC';-inkscape-font-specification:'Eras Demi ITC, Normal';font-variant-ligatures:normal;font-variant-caps:normal;font-variant-numeric:normal;font-variant-east-asian:normal;stroke-width:0.789;stroke:none;fill:url(#linearGradient1153);fill-opacity:1;stroke-miterlimit:4;stroke-dasharray:none"
         d="m 20.110547,9.5175393 q 0.215875,-1.110217 0.262134,-1.557388 0.06168,-0.44717 0.200456,-1.356931 2.097076,-0.49343 3.700723,-0.693886 1.603646,-0.200456 3.099355,-0.200456 1.696165,0 3.114775,0.400912 1.41861,0.385492 2.220434,1.248994 0.801823,0.863502 0.801823,2.482568 0,0.8789227 -0.246715,4.4871267 -0.246715,3.592785 -0.292974,7.432285 -1.171895,-0.03084 -2.158755,-0.03084 -0.9406,0 -2.205014,0.03084 0.200456,-1.865781 0.323814,-4.31751 l 0.200455,-3.8395 q -0.585947,0.385492 -0.894341,0.539689 -0.308393,0.154197 -0.693885,0.292974 -0.385492,0.123357 -1.356932,0.400912 -0.97144,0.262134 -1.557387,0.46259 -0.585948,0.200456 -1.063958,0.46259 -0.462591,0.246715 -0.786404,0.570528 -0.323813,0.308394 -0.47801,0.663047 -0.138777,0.339232 -0.138777,0.740144 0,0.647627 0.370072,1.125637 0.385492,0.46259 0.95602,0.647626 0.570528,0.185036 1.341512,0.185036 0.49343,0 1.033119,-0.0771 0.555108,-0.0771 1.480289,-0.385492 -0.323813,0.878921 -0.755564,2.621345 -1.094797,0.185036 -1.742424,0.231295 -0.647626,0.04626 -1.202735,0.04626 -1.942879,0 -3.191873,-0.524269 -1.248994,-0.524269 -1.850361,-1.665325 -0.585948,-1.141056 -0.585948,-2.297532 0,-0.663046 0.231295,-1.310673 0.231295,-0.647626 0.678466,-1.187315 0.44717,-0.539689 1.156476,-1.033118 0.709305,-0.50885 2.050817,-0.97144 1.341512,-0.47801 3.546526,-0.95602 0.585947,-0.123357 1.218154,-0.292974 0.632207,-0.185036 1.002279,-0.354652 0.385492,-0.169617 0.663046,-0.431751 0.277555,-0.277555 0.400912,-0.570528 0.138777,-0.292975 0.138777,-0.6013687 0,-0.601367 -0.400911,-1.017699 -0.385492,-0.416331 -1.017699,-0.570528 -0.616787,-0.169616 -1.372352,-0.169616 -2.806381,0 -6.19871,1.341512 z" />
      <path
         id="path1129"
         style="font-style:normal;font-variant:normal;font-weight:normal;font-stretch:normal;font-size:31.5795px;font-family:'Eras Demi ITC';-inkscape-font-specification:'Eras Demi ITC, Normal';font-variant-ligatures:normal;font-variant-caps:normal;font-variant-numeric:normal;font-variant-east-asian:normal;stroke-width:0.78949;stroke:none;fill:url(#linearGradient1155);fill-opacity:1"
         d="m 36.393726,21.46779 -0.339233,-3.392329 q 1.511129,0.616787 2.559667,0.863502 1.048538,0.231295 1.927459,0.231295 0.878922,0 1.480289,-0.200456 0.601368,-0.215875 0.894342,-0.616787 0.292974,-0.416331 0.292974,-0.863502 0,-0.200456 -0.04626,-0.370072 -0.03084,-0.169617 -0.138778,-0.354653 -0.09252,-0.185036 -0.231295,-0.339233 -0.123357,-0.169616 -0.354652,-0.370072 -0.231295,-0.215875 -0.663046,-0.539689 L 40.94253,14.852748 q -1.202735,-0.9406 -1.834942,-1.480289 -0.632206,-0.539688 -1.063957,-1.094797 -0.431751,-0.570528 -0.663047,-1.187315 -0.215875,-0.632208 -0.215875,-1.2798337 0,-1.125637 0.678466,-2.143336 0.693885,-1.017698 2.004558,-1.480289 1.310672,-0.47801 3.083935,-0.47801 2.019978,0 4.656743,0.47801 l 0.200456,3.222713 q -1.788683,-0.724725 -3.438588,-0.724725 -0.894342,0 -1.572807,0.185036 -0.663047,0.169617 -0.95602,0.539689 -0.292974,0.354653 -0.292974,0.8018227 0,0.262135 0.09252,0.52427 0.09252,0.246715 0.323813,0.524269 0.231295,0.277555 0.524269,0.524269 0.308394,0.246715 1.264414,0.97144 0.95602,0.724725 1.665325,1.310673 0.724725,0.585947 1.187315,1.187315 0.46259,0.585948 0.709305,1.264414 0.246715,0.678465 0.246715,1.372351 0,1.156476 -0.709305,2.143335 -0.709305,0.986859 -2.143335,1.541968 -1.43403,0.555108 -3.207293,0.555108 -0.925181,0 -2.251273,-0.154197 -1.326093,-0.138777 -2.837221,-0.508849 z" />
      <path
         id="path1131"
         style="font-style:normal;font-variant:normal;font-weight:normal;font-stretch:normal;font-size:31.5795px;font-family:'Eras Demi ITC';-inkscape-font-specification:'Eras Demi ITC, Normal';font-variant-ligatures:normal;font-variant-caps:normal;font-variant-numeric:normal;font-variant-east-asian:normal;stroke-width:0.78949;stroke:none;fill:url(#linearGradient1157);fill-opacity:1"
         d="m 48.760308,28.853816 q -0.277554,-2.312952 -0.447171,-3.330651 1.480289,0.693886 2.790962,0.693886 0.400912,0 0.817243,-0.107938 0.416331,-0.09252 0.770984,-0.277554 0.231295,-0.123358 0.46259,-0.354653 0.246715,-0.231295 0.663046,-0.848082 0.416332,-0.616787 0.724725,-1.218155 0.246715,-0.508849 0.508849,-1.279833 L 51.844244,12.740252 49.500452,6.0789513 q 1.619067,0.03084 2.328372,0.03084 0.817243,0 2.143335,-0.03084 0.323813,1.279833 0.601367,2.220433 l 1.46487,4.8417797 q 0.678466,2.235853 0.97144,3.36149 0.185036,0.740144 0.431751,1.958299 0.46259,-1.403191 0.801823,-2.282112 0.601367,-1.603647 1.680745,-4.286671 l 1.495708,-3.6853037 q 0.400912,-0.986859 0.817243,-2.127915 1.387771,0.03084 2.112496,0.03084 0.663046,0 2.220434,-0.03084 L 60.63346,19.386134 58.058374,25.261031 q -0.539689,1.141056 -1.033119,1.773263 -0.400911,0.539689 -0.878921,0.92518 -0.462591,0.370073 -0.98686,0.616788 -0.663046,0.308393 -1.43403,0.493429 -0.878921,0.185036 -1.773263,0.185036 -0.508849,0 -1.41861,-0.09252 -0.909761,-0.09252 -1.773263,-0.308393 z" />
      <path
         id="path1133"
         style="font-style:normal;font-variant:normal;font-weight:normal;font-stretch:normal;font-size:31.5795px;font-family:'Eras Demi ITC';-inkscape-font-specification:'Eras Demi ITC, Normal';font-variant-ligatures:normal;font-variant-caps:normal;font-variant-numeric:normal;font-variant-east-asian:normal;stroke-width:0.78949;fill:#320032;fill-opacity:1;stroke:none"
         d="m 68.019486,21.760764 q 0.292974,-3.268972 0.400912,-5.350628 0.107938,-2.081657 0.277554,-7.1084727 0.169616,-5.026815 0.169616,-6.908015 0,-0.570528 -0.01542,-1.68074507 1.942879,0.03084 3.222712,0.03084 1.295253,0 3.191874,-0.04626 1.89662,-0.04626 3.130194,-0.04626 1.727004,0 2.590506,0.154197 0.878922,0.138777 1.557388,0.43175097 0.678466,0.2929741 1.141056,0.7247251 0.46259,0.416331 0.786403,1.002279 0.339233,0.570528 0.49343,1.248994 0.169617,0.663046 0.169617,1.356931 0,0.863502 -0.215876,1.649906 -0.200456,0.770984 -0.601367,1.40319 -0.385492,0.616788 -0.909761,1.063958 -0.524269,0.4317507 -1.002279,0.6784657 -0.47801,0.246716 -1.279834,0.52427 0.724725,0.154197 1.156476,0.308394 0.431751,0.138777 0.925181,0.44717 0.49343,0.292974 0.925181,0.770984 0.44717,0.462591 0.709305,0.98686 0.262134,0.524269 0.400911,1.171895 0.154197,0.632207 0.154197,1.326092 0,1.480289 -0.647626,2.713864 -0.632207,1.233574 -1.757844,1.958299 -1.125636,0.709305 -2.528827,0.95602 -1.387771,0.231295 -5.921156,0.231295 l -3.731562,-0.01542 z M 73.061721,9.4404403 h 2.482568 q 1.588227,0 2.127916,-0.0771 0.555108,-0.0771 1.156475,-0.292974 0.601368,-0.231295 1.017699,-0.693885 0.416331,-0.47801 0.601368,-1.033119 0.200455,-0.570528 0.200455,-1.156476 0,-0.570528 -0.215875,-1.079377 -0.200456,-0.508849 -0.632207,-0.832663 -0.431751,-0.339233 -1.048538,-0.47801 -0.601367,-0.154196 -1.773263,-0.154196 h -3.700723 z m -0.370072,9.2980667 h 3.500266 q 1.063958,0 1.649906,-0.0771 0.601367,-0.09252 1.141056,-0.308394 0.539689,-0.215875 0.848082,-0.46259 0.308394,-0.246715 0.539689,-0.632207 0.246715,-0.385492 0.385492,-0.863502 0.138777,-0.49343 0.138777,-1.017699 0,-0.709305 -0.246715,-1.248994 -0.246715,-0.539688 -0.740144,-0.92518 -0.47801,-0.400912 -1.125637,-0.570528 -0.647626,-0.185036 -1.973718,-0.185036 h -3.885759 z" />
      <path
         id="path1135"
         style="font-style:normal;font-variant:normal;font-weight:normal;font-stretch:normal;font-size:31.5795px;font-family:'Eras Demi ITC';-inkscape-font-specification:'Eras Demi ITC, Normal';font-variant-ligatures:normal;font-variant-caps:normal;font-variant-numeric:normal;font-variant-east-asian:normal;stroke-width:0.78949;fill:#320032;fill-opacity:1;stroke:none"
         d="m 104.28657,21.760764 q -1.35693,-0.03084 -2.08165,-0.03084 -0.90977,0 -2.06625,0.03084 l 0.0308,-2.559667 q -0.431747,0.647627 -0.755567,1.048539 -0.32381,0.385491 -0.84808,0.770983 -0.52427,0.370073 -1.14105,0.601368 -0.61679,0.215875 -1.41861,0.354652 -0.78641,0.154197 -1.68075,0.154197 -1.727,0 -3.00684,-0.493429 -1.27983,-0.50885 -2.03539,-1.526549 -0.74015,-1.017698 -0.74015,-2.914319 v -0.323813 l 0.24672,-3.978277 0.23129,-5.2426907 q 0.0154,-0.632207 0.0154,-1.572807 1.46487,0.03084 2.29753,0.03084 0.87892,0 2.12792,-0.03084 l -0.50885,7.0313737 q -0.0463,0.817243 -0.0771,1.387771 -0.0154,0.555108 -0.0154,0.801823 0,1.110217 0.32381,1.850361 0.33924,0.724725 1.15648,1.110217 0.83266,0.385492 1.77326,0.385492 0.89434,0 1.69617,-0.339233 0.72472,-0.308393 1.23357,-0.863502 0.52427,-0.555108 0.87892,-1.495709 0.262137,-0.678465 0.400907,-1.8812 0.10794,-0.848083 0.20046,-2.914319 0.12337,-2.4979887 0.16963,-5.0730747 1.52655,0.03084 2.32837,0.03084 0.90976,0 2.05082,-0.03084 -0.18504,2.205014 -0.3855,5.5202447 -0.20045,3.299811 -0.27755,5.458566 -0.0771,2.143335 -0.12336,4.703002 z" />
      <path
         id="path1137"
         style="font-style:normal;font-variant:normal;font-weight:normal;font-stretch:normal;font-size:31.5795px;font-family:'Eras Demi ITC';-inkscape-font-specification:'Eras Demi ITC, Normal';font-variant-ligatures:normal;font-variant-caps:normal;font-variant-numeric:normal;font-variant-east-asian:normal;stroke-width:0.78949;fill:#320032;fill-opacity:1;stroke:none"
         d="m 117.73253,18.538051 q -0.18503,0.848083 -0.58594,3.145615 -1.29526,0.292973 -2.0354,0.370072 -0.74015,0.0771 -1.38777,0.0771 -1.14106,0 -2.05082,-0.215875 -0.89434,-0.215876 -1.48029,-0.755564 -0.58595,-0.555109 -0.80182,-1.279834 -0.20046,-0.740144 -0.20046,-1.526548 0,-0.200456 0.0154,-0.539689 0.0154,-0.339232 0.12336,-2.189594 l 0.35465,-6.4145867 h -2.22043 q 0.0771,-0.92518 0.13878,-2.975998 h 2.32837 q 0.0925,-0.894341 0.18503,-3.037676 l 1.81952,-0.354653 q 0.57053,-0.107937 2.20502,-0.508849 -0.10794,2.081656 -0.12336,3.901178 h 3.9166 q -0.10794,2.081657 -0.10794,2.975998 h -3.93202 q -0.32381,6.2758097 -0.32381,7.2626687 0,0.95602 0.20046,1.48029 0.21587,0.524269 0.67846,0.755564 0.46259,0.231295 0.98686,0.231295 0.38549,0 0.80183,-0.06168 0.43175,-0.06168 1.4957,-0.339233 z" />
      <path
         id="path1139"
         style="font-style:normal;font-variant:normal;font-weight:normal;font-stretch:normal;font-size:31.5795px;font-family:'Eras Demi ITC';-inkscape-font-specification:'Eras Demi ITC, Normal';font-variant-ligatures:normal;font-variant-caps:normal;font-variant-numeric:normal;font-variant-east-asian:normal;stroke-width:0.78949;fill:#320032;fill-opacity:1;stroke:none"
         d="m 129.45149,18.538051 q -0.18504,0.848083 -0.58595,3.145615 -1.29525,0.292973 -2.0354,0.370072 -0.74014,0.0771 -1.38777,0.0771 -1.14105,0 -2.05081,-0.215875 -0.89434,-0.215876 -1.48029,-0.755564 -0.58595,-0.555109 -0.80183,-1.279834 -0.20045,-0.740144 -0.20045,-1.526548 0,-0.200456 0.0154,-0.539689 0.0154,-0.339232 0.12336,-2.189594 l 0.35465,-6.4145867 h -2.22044 q 0.0771,-0.92518 0.13878,-2.975998 h 2.32837 q 0.0925,-0.894341 0.18504,-3.037676 l 1.81952,-0.354653 q 0.57053,-0.107937 2.20501,-0.508849 -0.10793,2.081656 -0.12335,3.901178 h 3.9166 q -0.10794,2.081657 -0.10794,2.975998 h -3.93202 q -0.32381,6.2758097 -0.32381,7.2626687 0,0.95602 0.20045,1.48029 0.21588,0.524269 0.67847,0.755564 0.46259,0.231295 0.98686,0.231295 0.38549,0 0.80182,-0.06168 0.43175,-0.06168 1.49571,-0.339233 z" />
      <path
         id="path1141"
         style="font-style:normal;font-variant:normal;font-weight:normal;font-stretch:normal;font-size:31.5795px;font-family:'Eras Demi ITC';-inkscape-font-specification:'Eras Demi ITC, Normal';font-variant-ligatures:normal;font-variant-caps:normal;font-variant-numeric:normal;font-variant-east-asian:normal;stroke-width:0.78949;fill:#320032;fill-opacity:1;stroke:none"
         d="m 139.98313,5.7088783 q 1.77326,0 3.39233,0.539689 1.63449,0.524269 2.76012,1.572807 1.14106,1.033119 1.71159,2.5442467 0.57052,1.49571 0.57052,3.161035 0,1.757843 -0.60136,3.392329 -0.60137,1.634486 -1.74243,2.837221 -1.14105,1.187315 -2.85264,1.788682 -1.69616,0.585948 -3.62362,0.585948 -1.78868,0 -3.40775,-0.524269 -1.60365,-0.539689 -2.7447,-1.603646 -1.14106,-1.063958 -1.74243,-2.590506 -0.58594,-1.526548 -0.58594,-3.191873 0,-1.696165 0.53968,-3.238133 0.53969,-1.5419687 1.68075,-2.7447027 1.15648,-1.202735 2.94516,-1.865782 1.78868,-0.663046 3.70072,-0.663046 z m 0,3.176454 q -1.34151,0 -2.40547,0.663046 -1.04854,0.6476267 -1.57281,1.9428807 -0.50885,1.295252 -0.50885,2.821801 0,1.341512 0.41634,2.39005 0.43175,1.048538 1.38777,1.696164 0.97144,0.647627 2.29753,0.647627 1.35693,0 2.37463,-0.663046 1.03312,-0.678466 1.54197,-1.973719 0.52427,-1.310673 0.52427,-2.88348 0,-1.279833 -0.40092,-2.328371 -0.40091,-1.048539 -1.35693,-1.6807457 -0.9406,-0.632207 -2.29753,-0.632207 z" />
      <path
         id="path1143"
         style="font-style:normal;font-variant:normal;font-weight:normal;font-stretch:normal;font-size:31.5795px;font-family:'Eras Demi ITC';-inkscape-font-specification:'Eras Demi ITC, Normal';font-variant-ligatures:normal;font-variant-caps:normal;font-variant-numeric:normal;font-variant-east-asian:normal;stroke-width:0.78949;fill:#320032;fill-opacity:1;stroke:none"
         d="m 150.9311,21.760764 q 0.35465,-3.500267 0.58595,-7.864036 0.24671,-4.3637697 0.27755,-7.8177767 1.41861,0.03084 2.26669,0.03084 1.00228,0 2.12792,-0.03084 l -0.16962,2.621345 q 0.47801,-0.678466 0.83267,-1.079378 0.37007,-0.400911 0.92518,-0.786403 0.57053,-0.385492 1.20273,-0.616787 0.64763,-0.231295 1.43403,-0.370073 0.80183,-0.138777 1.66533,-0.138777 1.37235,0 2.62134,0.354653 1.26442,0.339233 2.0354,1.094797 0.77098,0.755564 1.0177,1.649906 0.24671,0.894341 0.24671,1.8966207 0,0.416331 -0.0463,1.326092 l -0.32381,6.738399 q -0.0617,1.403191 -0.0771,2.991418 -1.21815,-0.03084 -2.08165,-0.03084 -1.1719,0 -2.35921,0.03084 0.12335,-1.341512 0.30839,-4.672162 0.18504,-3.346071 0.18504,-4.425448 0,-1.218155 -0.3855,-1.958299 -0.38549,-0.7401457 -1.20273,-1.1256377 -0.80182,-0.385491 -1.74243,-0.385491 -0.92518,0 -1.727,0.354652 -0.80182,0.354653 -1.38777,1.0331197 -0.61679,0.693885 -0.95602,1.711584 -0.35465,1.079377 -0.52427,3.561945 -0.1542,2.205014 -0.24671,5.905737 -1.18732,-0.03084 -2.14334,-0.03084 -0.97144,0 -2.35921,0.03084 z" />
    </g>
    <path
       sodipodi:nodetypes="cssc"
       d="m 17.826806,21.424489 c -5.073813,0 -14.7332509,2.640394 -14.7332509,-8.539092 v -0.08849 c 0,-10.6485577 9.6594379,-9.7779227 14.7332509,-9.7779227"
       style="fill:none;stroke:#b400b4;stroke-width:4.61197;stroke-linecap:butt;stroke-linejoin:bevel;stroke-miterlimit:4;stroke-dasharray:none;fill-opacity:0.86666667;stroke-opacity:1"
       id="rect21" />
    <path
       d="m 4.2439011,11.423585 h 7.5214799 v 0.530928 H 4.2439011 Z"
       style="fill:none;stroke:#b400b4;stroke-width:4.61197;stroke-linecap:butt;stroke-linejoin:bevel;stroke-miterlimit:4;stroke-dasharray:none;fill-opacity:0.86666667;stroke-opacity:1"
       id="rect1125" />
  </g>
</svg>
